<svg width="31" height="28" viewBox="0 0 31 28" fill="none" xmlns="http://www.w3.org/2000/svg">
<path d="M28.3561 0.244988C27.8568 0.192113 27.3141 0.269973 26.7688 0.485223C26.0928 0.750722 15.5004 5.19996 5.62628 9.35046L2.36365 10.7215C1.10028 11.2331 0.462402 12.0649 0.462402 13.1854C0.462402 13.9699 0.794909 15.034 2.38125 15.661L7.88841 17.8641C8.36461 19.2906 9.47067 22.6028 9.74858 23.4833C9.91382 24.0053 10.3312 25.3203 11.3858 25.6278C11.6021 25.7013 11.8278 25.7391 12.0577 25.7391C12.7231 25.7391 13.2023 25.4299 13.4366 25.2499L16.9369 22.2938L21.1883 26.2196C21.3521 26.3861 22.2188 27.2274 23.383 27.2274C24.8356 27.2274 25.9375 26.0199 26.1674 24.8514C26.292 24.2109 30.3924 3.658 30.3924 3.661C30.7604 2.0125 30.0986 1.15734 29.6735 0.79284C29.3092 0.48159 28.8554 0.297863 28.3561 0.244988ZM27.3615 3.48522C26.7952 6.32022 23.7079 21.7948 23.2392 24.0253L17.025 18.286L12.8088 21.8514L13.9765 17.2899C13.9765 17.2899 22.0322 9.1477 22.5174 8.6737C22.908 8.2942 22.9898 8.16117 22.9898 8.02917C22.9898 7.85367 22.8994 7.72741 22.6905 7.72741C22.5028 7.72741 22.2477 7.90708 22.1125 7.99108C20.395 9.06031 13.0813 13.2208 9.48158 15.2655L4.25903 13.1825L6.79402 12.119C13.2521 9.40401 24.7537 4.56822 27.3615 3.48522Z" fill="white"/>
</svg>
