<svg width="21" height="21" viewBox="0 0 21 21" fill="none" xmlns="http://www.w3.org/2000/svg">
<path d="M14.8429 6.0424L8.25293 12.6324L4.66293 9.0524L3.25293 10.4624L8.25293 15.4624L16.2529 7.4624L14.8429 6.0424ZM10.2529 0.462402C4.73293 0.462402 0.25293 4.9424 0.25293 10.4624C0.25293 15.9824 4.73293 20.4624 10.2529 20.4624C15.7729 20.4624 20.2529 15.9824 20.2529 10.4624C20.2529 4.9424 15.7729 0.462402 10.2529 0.462402ZM10.2529 18.4624C5.83293 18.4624 2.25293 14.8824 2.25293 10.4624C2.25293 6.0424 5.83293 2.4624 10.2529 2.4624C14.6729 2.4624 18.2529 6.0424 18.2529 10.4624C18.2529 14.8824 14.6729 18.4624 10.2529 18.4624Z" fill="#FF3446"/>
</svg>
