<svg width="21" height="16" viewBox="0 0 21 16" fill="none" xmlns="http://www.w3.org/2000/svg">
<path d="M17.5257 4.53236H14.7984V0.895996H2.07111C1.07111 0.895996 0.25293 1.71418 0.25293 2.71418V12.7142H2.07111C2.07111 14.2233 3.28929 15.4415 4.79838 15.4415C6.30748 15.4415 7.52566 14.2233 7.52566 12.7142H12.9802C12.9802 14.2233 14.1984 15.4415 15.7075 15.4415C17.2166 15.4415 18.4347 14.2233 18.4347 12.7142H20.2529V8.16872L17.5257 4.53236ZM4.79838 14.0778C4.04384 14.0778 3.43475 13.4687 3.43475 12.7142C3.43475 11.9596 4.04384 11.3505 4.79838 11.3505C5.55293 11.3505 6.16202 11.9596 6.16202 12.7142C6.16202 13.4687 5.55293 14.0778 4.79838 14.0778ZM17.0711 5.896L18.8529 8.16872H14.7984V5.896H17.0711ZM15.7075 14.0778C14.9529 14.0778 14.3438 13.4687 14.3438 12.7142C14.3438 11.9596 14.9529 11.3505 15.7075 11.3505C16.462 11.3505 17.0711 11.9596 17.0711 12.7142C17.0711 13.4687 16.462 14.0778 15.7075 14.0778Z" fill="#FF3446"/>
</svg>
