<svg width="18" height="20" viewBox="0 0 18 20" fill="none" xmlns="http://www.w3.org/2000/svg">
<path d="M0.458984 4.63623C0.458984 3.50212 0.827148 2.58382 1.56348 1.88135C2.2998 1.17041 3.26465 0.814941 4.45801 0.814941C5.66829 0.814941 6.6416 1.16618 7.37793 1.86865C8.11426 2.56266 8.48242 3.50635 8.48242 4.69971V5.61377C8.48242 6.75635 8.11426 7.67464 7.37793 8.36865C6.6416 9.06266 5.67676 9.40967 4.4834 9.40967C3.28158 9.40967 2.30827 9.06266 1.56348 8.36865C0.827148 7.66618 0.458984 6.72249 0.458984 5.5376V4.63623ZM2.89648 5.61377C2.89648 6.12158 3.04036 6.53206 3.32812 6.84521C3.62435 7.1499 4.00944 7.30225 4.4834 7.30225C4.95736 7.30225 5.33398 7.14567 5.61328 6.83252C5.89258 6.51937 6.03223 6.10042 6.03223 5.57568V4.63623C6.03223 4.12842 5.89258 3.71794 5.61328 3.40479C5.33398 3.09163 4.94889 2.93506 4.45801 2.93506C3.99251 2.93506 3.61589 3.09163 3.32812 3.40479C3.04036 3.70947 2.89648 4.13688 2.89648 4.68701V5.61377ZM9.29492 15.0337C9.29492 13.8911 9.66732 12.9728 10.4121 12.2788C11.1569 11.5763 12.1217 11.2251 13.3066 11.2251C14.5085 11.2251 15.4775 11.5721 16.2139 12.2661C16.9587 12.9517 17.3311 13.8996 17.3311 15.1099V16.0239C17.3311 17.158 16.9671 18.0763 16.2393 18.7788C15.5114 19.4728 14.5423 19.8198 13.332 19.8198C12.1133 19.8198 11.1357 19.4686 10.3994 18.7661C9.66309 18.0636 9.29492 17.1326 9.29492 15.9731V15.0337ZM11.7324 16.0239C11.7324 16.4894 11.8848 16.8872 12.1895 17.2173C12.4941 17.5474 12.875 17.7124 13.332 17.7124C14.3646 17.7124 14.8809 17.1411 14.8809 15.9985V15.0337C14.8809 14.5259 14.737 14.1196 14.4492 13.8149C14.1615 13.5018 13.7806 13.3452 13.3066 13.3452C12.8327 13.3452 12.4518 13.5018 12.1641 13.8149C11.8763 14.1196 11.7324 14.5386 11.7324 15.0718V16.0239ZM5.20703 18.1821L3.41699 17.2173L12.4434 2.77002L14.2334 3.73486L5.20703 18.1821Z" fill="#FF3446"/>
</svg>
