<svg width="23" height="21" viewBox="0 0 23 21" fill="none" xmlns="http://www.w3.org/2000/svg">
<path d="M0.25293 20.1816H4.25293V8.18164H0.25293V20.1816ZM22.2529 9.18164C22.2529 8.08164 21.3529 7.18164 20.2529 7.18164H13.9429L14.8929 2.61164L14.9229 2.29164C14.9229 1.88164 14.7529 1.50164 14.4829 1.23164L13.4229 0.181641L6.84293 6.77164C6.47293 7.13164 6.25293 7.63164 6.25293 8.18164V18.1816C6.25293 19.2816 7.15293 20.1816 8.25293 20.1816H17.2529C18.0829 20.1816 18.7929 19.6816 19.0929 18.9616L22.1129 11.9116C22.2029 11.6816 22.2529 11.4416 22.2529 11.1816V9.18164Z" fill="#FF3446"/>
</svg>
