<svg width="25" height="21" viewBox="0 0 25 21" fill="none" xmlns="http://www.w3.org/2000/svg">
<path d="M18.0313 7.64417L13.4159 0.731634C13.2157 0.436586 12.8785 0.289062 12.5413 0.289062C12.2041 0.289062 11.867 0.436586 11.6667 0.742171L7.05135 7.64417H2.00394C1.42438 7.64417 0.950195 8.11836 0.950195 8.69791C0.950195 8.79275 0.960733 8.88759 0.992345 8.98242L3.66885 18.7506C3.91121 19.6357 4.72259 20.2891 5.69203 20.2891H19.3907C20.3601 20.2891 21.1715 19.6357 21.4244 18.7506L24.1009 8.98242L24.1325 8.69791C24.1325 8.11836 23.6583 7.64417 23.0788 7.64417H18.0313ZM9.38012 7.64417L12.5413 3.00771L15.7026 7.64417H9.38012ZM12.5413 16.0741C11.3822 16.0741 10.4339 15.1257 10.4339 13.9666C10.4339 12.8075 11.3822 11.8591 12.5413 11.8591C13.7005 11.8591 14.6488 12.8075 14.6488 13.9666C14.6488 15.1257 13.7005 16.0741 12.5413 16.0741Z" fill="#FF3446"/>
</svg>
