<svg width="21" height="21" viewBox="0 0 21 21" fill="none" xmlns="http://www.w3.org/2000/svg">
<path d="M11.8389 5.71094H9.68336C9.61989 5.71152 9.55918 5.73699 9.51429 5.78187C9.46941 5.82676 9.44394 5.88746 9.44336 5.95094V9.32871H11.8389C12.3187 9.32871 12.7788 9.13814 13.118 8.7989C13.4572 8.45967 13.6478 7.99957 13.6478 7.51983C13.6478 7.04008 13.4572 6.57998 13.118 6.24075C12.7788 5.90152 12.3187 5.71094 11.8389 5.71094Z" fill="#FF3446"/>
<path d="M10.541 0.186523C8.5632 0.186523 6.62981 0.773013 4.98532 1.87183C3.34083 2.97064 2.0591 4.53243 1.30222 6.35969C0.545348 8.18695 0.347315 10.1976 0.733167 12.1374C1.11902 14.0772 2.07143 15.8591 3.46995 17.2576C4.86848 18.6561 6.65031 19.6085 8.59011 19.9944C10.5299 20.3802 12.5406 20.1822 14.3679 19.4253C16.1951 18.6684 17.7569 17.3867 18.8557 15.7422C19.9545 14.0977 20.541 12.1643 20.541 10.1865C20.5381 7.53526 19.4836 4.99343 17.6088 3.1187C15.7341 1.24398 13.1923 0.189464 10.541 0.186523ZM11.8388 10.4332H9.44324V11.691H12.2499C12.3678 11.691 12.4808 11.7378 12.5642 11.8211C12.6475 11.9045 12.6943 12.0175 12.6943 12.1354C12.6943 12.2533 12.6475 12.3663 12.5642 12.4497C12.4808 12.533 12.3678 12.5799 12.2499 12.5799H9.44324V14.891C9.44324 15.0088 9.39641 15.1219 9.31306 15.2052C9.22972 15.2886 9.11667 15.3354 8.9988 15.3354C8.88092 15.3354 8.76788 15.2886 8.68453 15.2052C8.60118 15.1219 8.55435 15.0088 8.55435 14.891V12.5799H7.42991C7.31203 12.5799 7.19899 12.533 7.11564 12.4497C7.03229 12.3663 6.98546 12.2533 6.98546 12.1354C6.98546 12.0175 7.03229 11.9045 7.11564 11.8211C7.19899 11.7378 7.31203 11.691 7.42991 11.691H8.54102V10.4332H7.42991C7.31203 10.4332 7.19899 10.3864 7.11564 10.303C7.03229 10.2197 6.98546 10.1066 6.98546 9.98874C6.98546 9.87087 7.03229 9.75782 7.11564 9.67447C7.19899 9.59112 7.31203 9.5443 7.42991 9.5443H8.54102V6.16652C8.5416 5.8673 8.66073 5.58051 8.87231 5.36893C9.08389 5.15735 9.37069 5.03822 9.66991 5.03763H11.8255C12.541 5.03763 13.2271 5.32186 13.7331 5.82779C14.239 6.33372 14.5232 7.01992 14.5232 7.73541C14.5232 8.45091 14.239 9.1371 13.7331 9.64303C13.2271 10.149 12.541 10.4332 11.8255 10.4332H11.8388Z" fill="#FF3446"/>
</svg>
