<svg width="24" height="21" viewBox="0 0 24 21" fill="none" xmlns="http://www.w3.org/2000/svg">
<path fill-rule="evenodd" clip-rule="evenodd" d="M7.37477 16.1501L11.0111 12.5865C10.5384 12.538 10.1869 12.5138 9.79901 12.5138C6.56265 12.5138 0.102051 14.138 0.102051 17.3623V19.7865H11.0111L7.37477 16.1501ZM9.79901 10.0895C12.4778 10.0895 14.6475 7.91984 14.6475 5.24106C14.6475 2.56227 12.4778 0.392578 9.79901 0.392578C7.12022 0.392578 4.95053 2.56227 4.95053 5.24106C4.95053 7.91984 7.12022 10.0895 9.79901 10.0895Z" fill="#FF3446"/>
<path fill-rule="evenodd" clip-rule="evenodd" d="M15.2173 20.3928L11.0112 16.1503L12.7082 14.4413L15.2173 16.9625L21.4355 10.6958L23.1324 12.4049L15.2173 20.3928Z" fill="#FF3446"/>
</svg>
