<svg width="18" height="19" viewBox="0 0 18 19" fill="none" xmlns="http://www.w3.org/2000/svg">
<path d="M13.0001 11.9824H12.2101L11.9301 11.7124C12.9101 10.5724 13.5001 9.09242 13.5001 7.48242C13.5001 3.89242 10.5901 0.982422 7.00012 0.982422C3.41012 0.982422 0.500122 3.89242 0.500122 7.48242C0.500122 11.0724 3.41012 13.9824 7.00012 13.9824C8.61012 13.9824 10.0901 13.3924 11.2301 12.4124L11.5001 12.6924V13.4824L16.5001 18.4724L17.9901 16.9824L13.0001 11.9824ZM7.00012 11.9824C4.51012 11.9824 2.50012 9.97242 2.50012 7.48242C2.50012 4.99242 4.51012 2.98242 7.00012 2.98242C9.49012 2.98242 11.5001 4.99242 11.5001 7.48242C11.5001 9.97242 9.49012 11.9824 7.00012 11.9824Z" fill="white"/>
</svg>
