<svg width="16" height="22" viewBox="0 0 16 22" fill="none" xmlns="http://www.w3.org/2000/svg">
<path d="M5.00293 8.52467V4.78467C5.00293 3.40467 6.12293 2.28467 7.50293 2.28467C8.88293 2.28467 10.0029 3.40467 10.0029 4.78467V8.52467C11.2129 7.71467 12.0029 6.34467 12.0029 4.78467C12.0029 2.29467 9.99293 0.284668 7.50293 0.284668C5.01293 0.284668 3.00293 2.29467 3.00293 4.78467C3.00293 6.34467 3.79293 7.71467 5.00293 8.52467ZM14.8429 13.1547L10.3029 10.8947C10.1329 10.8247 9.95293 10.7847 9.76293 10.7847H9.00293V4.78467C9.00293 3.95467 8.33293 3.28467 7.50293 3.28467C6.67293 3.28467 6.00293 3.95467 6.00293 4.78467V15.5247L2.57293 14.8047C2.49293 14.7947 2.42293 14.7747 2.33293 14.7747C2.02293 14.7747 1.74293 14.9047 1.54293 15.1047L0.75293 15.9047L5.69293 20.8447C5.96293 21.1147 6.34293 21.2847 6.75293 21.2847H13.5429C14.2929 21.2847 14.8729 20.7347 14.9829 20.0047L15.7329 14.7347C15.7429 14.6647 15.7529 14.5947 15.7529 14.5347C15.7529 13.9147 15.3729 13.3747 14.8429 13.1547Z" fill="#FF3446"/>
</svg>
