<svg width="31" height="31" viewBox="0 0 31 31" fill="none" xmlns="http://www.w3.org/2000/svg">
<path d="M15.4338 0.227539C7.16262 0.227539 0.429322 6.9451 0.426317 15.2041C0.424815 17.8441 1.11731 20.4214 2.43025 22.6924L0.394043 30.2275L8.25429 28.373C10.446 29.567 12.9133 30.1938 15.425 30.1953H15.4309C23.7006 30.1953 30.431 23.4762 30.4355 15.2188C30.4385 11.2152 28.8794 7.45114 26.0462 4.61914C23.213 1.78864 19.4478 0.229039 15.4338 0.227539ZM15.4309 3.22754C18.6396 3.22904 21.6551 4.47823 23.922 6.74023C26.1888 9.00523 27.4341 12.0148 27.431 15.2158C27.428 21.8218 22.0467 27.1953 15.428 27.1953C13.4255 27.1938 11.442 26.6918 9.69489 25.7393L8.68265 25.1885L7.56479 25.4521L4.6073 26.1494L5.32907 23.4717L5.65474 22.2705L5.03273 21.1924C3.98418 19.3804 3.42925 17.3086 3.43075 15.2041C3.43376 8.6011 8.81663 3.22754 15.4309 3.22754ZM10.1233 8.29004C9.87239 8.29004 9.46676 8.38379 9.12276 8.75879C8.77875 9.13229 7.80831 10.0369 7.80831 11.8789C7.80831 13.7209 9.1521 15.5015 9.33987 15.752C9.52615 16.001 11.9337 19.9004 15.7448 21.4004C18.9115 22.6469 19.5547 22.4009 20.2427 22.3379C20.9307 22.2764 22.4623 21.4341 22.7748 20.5596C23.0872 19.6851 23.0879 18.9328 22.9948 18.7783C22.9017 18.6223 22.6515 18.5293 22.276 18.3418C21.9019 18.1543 20.0586 17.2505 19.7146 17.126C19.3706 17.0015 19.1189 16.9385 18.8696 17.3135C18.6202 17.6885 17.9036 18.5293 17.6842 18.7783C17.4649 19.0288 17.2471 19.0625 16.8715 18.875C16.496 18.686 15.2885 18.2896 13.8553 17.0146C12.7407 16.0231 11.9886 14.7998 11.7692 14.4248C11.5514 14.0513 11.7487 13.8462 11.9365 13.6602C12.1047 13.4922 12.3091 13.2229 12.4969 13.0039C12.6832 12.7849 12.7478 12.6289 12.8724 12.3799C12.9971 12.1309 12.9333 11.9111 12.8402 11.7236C12.747 11.5361 12.0176 9.68729 11.6842 8.94629C11.4032 8.32379 11.1066 8.30933 10.8392 8.29883C10.6213 8.28983 10.3726 8.29004 10.1233 8.29004Z" fill="white"/>
</svg>
